<?xml version="1.0" standalone="no"?>
<!DOCTYPE svg PUBLIC "-//W3C//DTD SVG 20010904//EN"
 "http://www.w3.org/TR/2001/REC-SVG-20010904/DTD/svg10.dtd">
<svg version="1.0" xmlns="http://www.w3.org/2000/svg"
 width="1080.000000pt" height="1080.000000pt" viewBox="0 0 1080.000000 1080.000000"
 preserveAspectRatio="xMidYMid meet">
<metadata>
Created by potrace 1.14, written by Peter Selinger 2001-2017
</metadata>
<g transform="translate(0.000000,1080.000000) scale(0.100000,-0.100000)"
fill="#000000" stroke="none">
<path d="M5138 10355 c-1 -2 -50 -6 -108 -9 -58 -4 -118 -8 -135 -11 -16 -2
-52 -6 -80 -9 -92 -10 -314 -45 -385 -60 -14 -3 -50 -11 -80 -17 -30 -6 -89
-20 -130 -31 -41 -11 -86 -22 -100 -24 -14 -3 -63 -17 -110 -30 -591 -177
-1129 -448 -1605 -810 -60 -46 -123 -94 -138 -108 -16 -14 -47 -40 -70 -58
-145 -117 -456 -429 -596 -597 -577 -692 -962 -1526 -1096 -2375 -4 -21 -8
-47 -10 -58 -3 -11 -7 -46 -10 -77 -4 -31 -8 -63 -10 -71 -2 -8 -7 -46 -10
-85 -4 -38 -8 -84 -10 -101 -22 -189 -22 -683 0 -860 2 -16 6 -63 10 -104 4
-41 9 -82 10 -91 2 -9 6 -40 10 -70 3 -30 8 -61 10 -69 3 -8 7 -35 10 -60 13
-104 80 -397 135 -584 31 -107 103 -322 120 -361 5 -11 26 -60 46 -110 81
-201 213 -469 302 -613 17 -29 32 -55 32 -58 0 -2 8 -17 18 -32 11 -15 57 -85
104 -157 88 -133 215 -307 297 -405 25 -30 57 -68 71 -84 95 -114 348 -371
485 -492 265 -236 594 -466 908 -638 82 -45 324 -166 331 -166 3 0 31 -12 63
-26 93 -43 290 -119 398 -153 55 -18 107 -35 115 -38 26 -10 30 -11 225 -62
105 -27 207 -52 229 -55 21 -4 41 -8 45 -11 4 -2 30 -7 57 -11 27 -3 51 -7 54
-9 3 -2 30 -6 60 -10 30 -3 62 -8 70 -10 35 -9 206 -29 365 -41 193 -16 707
-9 874 11 83 11 115 14 166 20 28 3 73 10 100 15 28 5 66 12 85 15 64 10 335
67 343 72 4 2 18 6 32 9 122 22 553 167 720 243 22 10 69 31 105 47 36 16 112
53 170 83 58 29 122 62 143 73 68 34 289 169 397 241 236 159 484 360 680 551
130 127 261 267 350 375 25 30 60 70 77 90 18 20 33 39 33 43 0 4 6 13 13 20
63 65 397 564 397 593 0 3 11 24 25 46 58 90 179 346 262 547 149 367 280 867
318 1212 3 30 8 71 10 90 20 163 28 316 28 550 1 184 -8 412 -18 473 -2 12 -6
53 -10 90 -3 37 -8 76 -10 86 -2 10 -6 42 -10 71 -4 29 -9 62 -11 74 -2 12 -6
37 -9 56 -3 19 -7 46 -10 60 -14 65 -16 77 -20 100 -15 102 -108 440 -170 620
-91 263 -241 592 -380 835 -63 110 -166 277 -175 285 -3 3 -16 21 -27 40 -12
19 -47 69 -77 110 -31 41 -64 86 -73 99 -10 14 -47 61 -82 105 -597 749 -1406
1312 -2311 1613 -167 55 -367 111 -454 127 -14 3 -34 7 -44 10 -9 3 -28 7 -42
10 -14 3 -36 7 -50 11 -14 3 -77 14 -140 24 -101 17 -139 23 -248 36 -13 2
-55 6 -95 10 -40 4 -85 9 -102 12 -34 5 -651 13 -657 8z"/>
</g>
</svg>
